<?xml version="1.0" encoding="iso-8859-1"?>
<!-- Generator: Adobe Illustrator 19.0.0, SVG Export Plug-In . SVG Version: 6.00 Build 0)  -->
<svg version="1.1" id="Capa_1" xmlns="http://www.w3.org/2000/svg" xmlns:xlink="http://www.w3.org/1999/xlink" x="0px" y="0px"
	 viewBox="0 0 480.063 480.063" style="enable-background:new 0 0 480.063 480.063;" xml:space="preserve">
<g>
	<g>
		<path d="M469.923,171.36C439.586,69.719,346.125,0.046,240.052,0C159.239,0.327,83.94,41.039,39.412,108.48
			c-4.14,7.44-6.649,15.676-7.36,24.16V48h-32v128h128v-32h-72.32C91.56,75.075,162.379,31.428,240.052,30.4
			c115.432,0.785,208.815,94.168,209.6,209.6c-0.785,115.432-94.168,208.815-209.6,209.6
			c-92.115-1.071-172.856-61.854-199.36-150.08l-30.72,9.12c37.909,127.012,171.603,199.244,298.615,161.335
			C435.599,432.066,507.831,298.372,469.923,171.36z"/>
	</g>
</g>
<g>
</g>
<g>
</g>
<g>
</g>
<g>
</g>
<g>
</g>
<g>
</g>
<g>
</g>
<g>
</g>
<g>
</g>
<g>
</g>
<g>
</g>
<g>
</g>
<g>
</g>
<g>
</g>
<g>
</g>
</svg>
