<svg xmlns="http://www.w3.org/2000/svg" width="22" height="15" viewBox="0 0 22 15" fill="none">
<path d="M7.78125 14.7524C7.54105 14.7492 7.31074 14.6562 7.13554 14.4919L0.791793 8.14814C0.647279 7.97206 0.573427 7.74852 0.584602 7.52101C0.595776 7.29349 0.691177 7.07826 0.852249 6.91719C1.01332 6.75612 1.22855 6.66072 1.45606 6.64954C1.68358 6.63837 1.90712 6.71222 2.0832 6.85674L7.78125 12.5661L19.823 0.512985C19.9991 0.368471 20.2227 0.294619 20.4502 0.305793C20.6777 0.316967 20.8929 0.412369 21.054 0.573441C21.2151 0.734513 21.3105 0.949739 21.3216 1.17726C21.3328 1.40477 21.259 1.62831 21.1145 1.80439L8.42695 14.4919C8.25175 14.6562 8.02145 14.7492 7.78125 14.7524Z" fill="#492B25"/>
</svg>